HIERARCHY
ROOT Hips
{
	OFFSET -21.947001 39.810204 44.525997
	CHANNELS 6 Xposition Yposition Zposition Zrotation Xrotation Yrotation
	JOINT Chest
	{
		OFFSET -0.201599 0.334099 6.453201
		CHANNELS 6 Xposition Yposition Zposition Zrotation Xrotation Yrotation
		JOINT Chest2
		{
			OFFSET 0.000000 0.000000 3.568001
			CHANNELS 6 Xposition Yposition Zposition Zrotation Xrotation Yrotation
			JOINT Neck
			{
				OFFSET 0.000000 0.000000 8.296402
				CHANNELS 6 Xposition Yposition Zposition Zrotation Xrotation Yrotation
				JOINT Head
				{
					OFFSET 0.000000 0.000000 2.173901
					CHANNELS 6 Xposition Yposition Zposition Zrotation Xrotation Yrotation
					End Site
					{
						OFFSET 0.000000 0.000000 7.891998
					}
				}
			}
			JOINT LeftCollar
			{
				OFFSET 1.927601 0.221401 6.049000
				CHANNELS 6 Xposition Yposition Zposition Zrotation Xrotation Yrotation
				JOINT LeftShoulder
				{
					OFFSET 4.959700 0.000000 0.000000
					CHANNELS 6 Xposition Yposition Zposition Zrotation Xrotation Yrotation
					JOINT LeftElbow
					{
						OFFSET 0.000000 0.000000 -8.654202
						CHANNELS 6 Xposition Yposition Zposition Zrotation Xrotation Yrotation
						JOINT LeftWrist
						{
							OFFSET 0.000000 0.000000 -13.864101
							CHANNELS 6 Xposition Yposition Zposition Zrotation Xrotation Yrotation
							End Site
							{
								OFFSET 0.000000 0.000000 -2.173901
							}
						}
					}
				}
			}
			JOINT RightCollar
			{
				OFFSET -3.155701 -0.764999 6.687801
				CHANNELS 6 Xposition Yposition Zposition Zrotation Xrotation Yrotation
				JOINT RightShoulder
				{
					OFFSET -3.592899 0.000000 0.000000
					CHANNELS 6 Xposition Yposition Zposition Zrotation Xrotation Yrotation
					JOINT RightElbow
					{
						OFFSET 0.000000 0.000000 -10.352398
						CHANNELS 6 Xposition Yposition Zposition Zrotation Xrotation Yrotation
						JOINT RightWrist
						{
							OFFSET 0.000000 0.000000 -12.750301
							CHANNELS 6 Xposition Yposition Zposition Zrotation Xrotation Yrotation
							End Site
							{
								OFFSET 0.000000 0.000000 -2.173901
							}
						}
					}
				}
			}
		}
	}
	JOINT LeftHip
	{
		OFFSET 2.460600 -0.518101 -2.735500
		CHANNELS 6 Xposition Yposition Zposition Zrotation Xrotation Yrotation
		JOINT LeftKnee
		{
			OFFSET 0.000000 -0.000004 -17.005899
			CHANNELS 6 Xposition Yposition Zposition Zrotation Xrotation Yrotation
			JOINT LeftAnkle
			{
				OFFSET 0.000000 0.000000 -19.194401
				CHANNELS 6 Xposition Yposition Zposition Zrotation Xrotation Yrotation
				End Site
				{
					OFFSET 0.000000 -8.134600 0.000000
				}
			}
		}
	}
	JOINT RightHip
	{
		OFFSET -3.115499 -0.679600 -2.320301
		CHANNELS 6 Xposition Yposition Zposition Zrotation Xrotation Yrotation
		JOINT RightKnee
		{
			OFFSET 0.000000 -0.000004 -17.680401
			CHANNELS 6 Xposition Yposition Zposition Zrotation Xrotation Yrotation
			JOINT RightAnkle
			{
				OFFSET 0.000000 0.000000 -16.993797
				CHANNELS 6 Xposition Yposition Zposition Zrotation Xrotation Yrotation
				End Site
				{
					OFFSET 0.000000 -8.842300 0.000000
				}
			}
		}
	}
}
MOTION
Frames: 4
Frame Time: 0.041667
63.624512 -1.481888 47.202488 2883.087326 -8.173186 -1.141929 -0.201595 0.334097 6.453202 -2.190145 11.730331 -2.495902 -0.000000 0.000002 3.567999 -0.544088 -1.385174 -0.146620 -0.000004 0.000002 8.296393 179.020925 -176.622914 182.787760 -0.000003 -0.000001 2.173898 0.046990 -0.298139 0.075044 1.927594 0.221402 6.048996 -18.663726 0.491628 -1.296774 4.959692 -0.000001 -0.000001 146.278719 184.441158 123.613269 -0.000009 0.000000 -8.654202 -3.541391 -57.007187 30.438574 0.000000 -0.000001 -13.864100 4028.174113 -20.946331 -338.757794 -3.155713 -0.765000 6.687798 38.034868 2.210899 0.951106 -3.592899 0.000006 0.000001 -153.848823 186.139184 225.734364 -0.000002 -0.000006 -10.352396 -267.840869 -63.979229 -254.256879 -0.000005 0.000004 -12.750294 196.343200 192.556092 -86.891727 2.460601 -0.518097 -2.735501 -1083.014684 5.667001 -2.233855 0.000001 -0.000000 -17.005896 901.281819 163.557322 -171.802262 -0.000006 0.000004 -19.194399 175.410077 128.322657 177.915035 -3.115497 -0.679598 -2.320303 -366.932461 -2.390655 1.474407 0.000003 0.000001 -17.680397 -829.817495 152.108559 -206.396815 0.000005 -0.000002 -16.993797 1397.111042 42.359440 -389.817037
63.715508 -1.524994 47.214291 2883.252999 -8.377304 -1.144442 -0.201606 0.334098 6.453202 -2.369791 12.176798 -2.381054 0.000000 0.000000 3.568007 -0.332674 -1.527769 -0.130929 -0.000000 0.000001 8.296396 178.891820 -176.396466 182.778430 0.000004 -0.000001 2.173904 0.111458 -0.328913 0.045339 1.927605 0.221404 6.049001 -18.303167 0.263455 -1.275603 4.959699 0.000005 0.000006 145.966402 184.272766 122.908585 -0.000002 -0.000003 -8.654202 -4.061785 -57.547841 30.434329 -0.000007 -0.000004 -13.864111 4027.876864 -21.088950 -338.746920 -3.155703 -0.764998 6.687802 37.658699 2.005930 0.771637 -3.592901 0.000001 0.000003 -153.253421 186.027961 225.750019 -0.000008 -0.000010 -10.352390 -267.723089 -63.654535 -253.743003 0.000002 -0.000005 -12.750296 196.590289 192.517870 -87.234117 2.460594 -0.518099 -2.735512 -1082.819286 5.767521 -2.838067 0.000001 -0.000004 -17.005898 900.255925 163.128536 -171.868924 -0.000004 0.000000 -19.194399 172.843442 129.441633 178.070094 -3.115504 -0.679595 -2.320302 -366.837849 -2.229160 1.656848 -0.000003 0.000001 -17.680399 -829.339601 152.213839 -206.701154 -0.000002 -0.000008 -16.993790 1396.848435 42.357066 -390.154640
63.796509 -1.558990 47.213894 2883.637238 -8.258316 -1.093042 -0.201608 0.334102 6.453206 -2.738809 12.096725 -2.405635 0.000003 0.000001 3.567993 -0.026709 -1.584865 -0.080209 -0.000004 -0.000001 8.296398 178.688513 -176.297414 182.899694 -0.000005 0.000000 2.173898 0.064467 -0.463374 -0.065677 1.927598 0.221402 6.049001 -18.302865 0.315143 -1.382796 4.959692 -0.000002 0.000004 145.712606 184.192334 122.236371 -0.000001 0.000000 -8.654200 -3.554660 -58.009910 31.131855 0.000004 -0.000002 -13.864098 4027.106637 -21.099300 -338.911664 -3.155703 -0.765001 6.687798 37.704683 2.108245 0.665162 -3.592903 0.000001 0.000001 -153.346708 186.127996 225.716210 0.000002 -0.000008 -10.352388 -267.380213 -63.290889 -253.216887 -0.000008 0.000000 -12.750298 196.931525 192.235456 -86.835644 2.460590 -0.518094 -2.735501 -1082.420294 5.375860 -3.550972 -0.000001 -0.000003 -17.005899 898.543624 162.445039 -171.953072 -0.000012 0.000004 -19.194397 171.003676 131.144591 180.150993 -3.115500 -0.679591 -2.320307 -366.998522 -2.426169 1.691499 0.000003 0.000002 -17.680393 -828.785864 152.212009 -207.065900 0.000001 0.000001 -16.993788 1396.442995 42.202615 -390.427956
63.887001 -1.597496 47.197086 2883.929242 -7.890652 -1.021586 -0.201606 0.334096 6.453204 -2.979662 11.589817 -2.617347 0.000004 0.000002 3.567993 0.384843 -1.485434 0.029771 0.000011 0.000002 8.296399 178.385840 -176.235970 183.146031 -0.000004 -0.000001 2.173911 0.100809 -0.594710 -0.229942 1.927609 0.221406 6.049004 -18.610312 0.638542 -1.472108 4.959700 0.000000 0.000003 145.695175 184.452578 121.546099 -0.000004 -0.000009 -8.654194 -3.341895 -58.458428 31.599604 -0.000000 -0.000002 -13.864100 4026.561970 -21.203856 -339.154245 -3.155694 -0.765001 6.687806 37.766547 2.325473 0.784688 -3.592903 -0.000006 0.000007 -153.579549 186.401245 225.563254 -0.000001 -0.000008 -10.352404 -267.175745 -62.921499 -252.794208 0.000001 0.000006 -12.750301 196.575522 191.914396 -86.989071 2.460590 -0.518099 -2.735495 -1081.780660 4.657999 -4.221455 0.000002 -0.000003 -17.005903 896.530467 161.762553 -172.101151 -0.000005 0.000000 -19.194399 171.451204 132.890756 180.930509 -3.115504 -0.679595 -2.320295 -367.010544 -2.846507 1.616423 0.000001 -0.000001 -17.680401 -827.438513 152.415166 -207.676355 0.000008 -0.000003 -16.993790 1395.439449 41.918917 -390.913555
